<svg xmlns="http://www.w3.org/2000/svg" viewBox="0 0 32 32">
  <defs>
    <linearGradient id="grad32" x1="0%" y1="0%" x2="100%" y2="100%">
      <stop offset="0%" style="stop-color:#667eea"/>
      <stop offset="100%" style="stop-color:#764ba2"/>
    </linearGradient>
  </defs>
  
  <rect width="32" height="32" rx="6" fill="url(#grad32)"/>
  
  <path d="M 16 6 
           C 22 6, 24 8, 24 11
           C 24 13, 22 15, 19 15.5
           C 17 16, 15 17, 15 19
           C 15 21, 17 22, 19 22
           C 21 22, 22 21, 23 20
           L 26 22
           C 24 25, 22 26, 19 26
           C 14 26, 11 23, 11 19
           C 11 17, 13 15, 16 14.5
           C 18 14, 20 13, 20 10
           C 20 8, 18 7, 16 7
           C 13 7, 11 8, 10 10
           L 7 8
           C 9 6, 11 6, 16 6 Z"
     fill="#ffffff"/>
</svg>

