<svg xmlns="http://www.w3.org/2000/svg" viewBox="0 0 192 192">
  <defs>
    <linearGradient id="grad192" x1="0%" y1="0%" x2="100%" y2="100%">
      <stop offset="0%" style="stop-color:#667eea;stop-opacity:1" />
      <stop offset="50%" style="stop-color:#764ba2;stop-opacity:1" />
      <stop offset="100%" style="stop-color:#f093fb;stop-opacity:1" />
    </linearGradient>
  </defs>
  
  <!-- Background -->
  <rect width="192" height="192" rx="38" fill="url(#grad192)"/>
  
  <!-- Simple "S" -->
  <path d="M 96 38 
           C 130 38, 145 50, 145 70
           C 145 83, 135 92, 115 95
           L 110 96
           C 95 99, 87 107, 87 118
           C 87 132, 98 140, 115 140
           C 128 140, 138 135, 145 125
           L 160 135
           C 152 152, 137 155, 115 155
           C 85 155, 65 142, 65 115
           C 65 100, 75 90, 95 87
           L 100 86
           C 115 83, 123 75, 123 62
           C 123 48, 112 40, 95 40
           C 78 40, 68 48, 62 58
           L 47 48
           C 55 33, 70 38, 96 38 Z"
     fill="#ffffff"/>
  
  <!-- Small sparkle -->
  <circle cx="145" cy="65" r="4" fill="#ffffff" opacity="0.8"/>
  <polygon points="160,45 162,50 167,52 162,54 160,59 158,54 153,52 158,50" fill="#ffffff" opacity="0.8"/>
</svg>

